<?xml version="1.0" encoding="UTF-8" standalone="no"?>
<svg
   version="1.1"
   width="1814.9038"
   height="1649.6805"
   id="svg8"
   viewBox="0 0 1814.9038 1649.6805"
   sodipodi:docname="8dcd26f84a88ed1e5881ef7c183eea13.cdr"
   xmlns:inkscape="http://www.inkscape.org/namespaces/inkscape"
   xmlns:sodipodi="http://sodipodi.sourceforge.net/DTD/sodipodi-0.dtd"
   xmlns="http://www.w3.org/2000/svg"
   xmlns:svg="http://www.w3.org/2000/svg">
  <defs
     id="defs12" />
  <sodipodi:namedview
     id="namedview10"
     pagecolor="#ffffff"
     bordercolor="#666666"
     borderopacity="1.0"
     inkscape:pageshadow="2"
     inkscape:pageopacity="0.0"
     inkscape:pagecheckerboard="0" />
  <path
     d="m 1009.7411,1610.3338 c 222.3327,0 423.6275,-90.1326 569.333,-235.8298 145.7054,-145.7054 235.8297,-347.0085 235.8297,-569.3412 0,-222.3327 -90.1243,-423.6276 -235.8297,-569.333 C 1433.3686,90.1327 1232.0738,0 1009.7411,0 787.40841,0 586.11361,90.1327 440.40821,235.8298 c -145.7055,145.7054 -235.8298,347.0086 -235.8298,569.333 0,104.3016 19.835,203.9743 55.9378,295.4508 l 176.5322,-20.8885 c -82.8988,-244.7228 -34.6013,-533.5122 155.0547,-682.5857 359.9996,-282.9575 812.89429,-111.6931 901.01939,244.5983 53.615,216.7414 -69.3022,413.7059 -214.6509,477.8979 -145.7635,64.3746 -344.60279,36.2439 -427.70899,-64.4491 l -0.0332,-0.042 c -5.9812,-5.0023 -13.2482,-13.8704 -21.9255,-27.7242 -103.2398,-149.397 -44.1828,-406.5301 177.53599,-406.5301 117.0936,0 211.988,94.8943 211.988,211.988 0,66.4816 -30.5945,125.7957 -78.4689,164.661 76.2871,-3.3514 160.9861,-49.5667 197.6613,-157.5516 108.1177,-318.3553 -334.6646,-581.8844 -632.96089,-337.8668 -104.6086,85.57 -180.0661,229.6993 -148.2688,428.3229 84.1846,525.7806 768.98529,614.6025 1067.18199,247.1617 115.8658,-142.7771 162.3466,-353.5124 126.6088,-555.8939 14.5091,58.7583 22.2158,120.2045 22.2158,183.4508 0,210.5777 -85.3543,401.2291 -223.3365,539.2196 -68.0744,68.0661 -148.9573,123.3154 -238.7249,161.8405 -101.3401,42.98 -202.871,43.345 -248.2236,40.6987 -182.64609,-14.6253 -270.16559,-53.5736 -414.01279,-164.0058 -33.0168,-25.3516 -62.8149,-54.0878 -89.386,-85.4372 -14.2188,33.9708 -30.105,70.6875 -46.6217,107.9103 l -10.7264,24.074 c 138.6458,113.0537 315.6343,180.8709 508.47579,180.8709 z"
     style="fill:#94bf0b;fill-rule:evenodd"
     id="path2" />
  <path
     d="m 1005.5848,664.8207 a 168.8496,168.849 0 0 1 168.8496,168.849 168.8496,168.849 0 1 1 -168.8496,-168.849 z"
     style="fill:#f49100;fill-rule:evenodd"
     id="path4" />
  <path
     d="m 476.89151,1374.4405 c -47.6261,107.3084 -103.166,224.8433 -120.4239,252.0217 -5.1322,8.256 -12.7492,15.081 -22.3549,19.2082 -24.9769,10.7318 -53.9285,-0.8186 -64.6603,-25.7956 -12.9144,-30.1347 -25.0015,-77.7791 -36.8394,-124.4252 -12.2384,-48.2385 -24.176,-95.2873 -31.0964,-105.6584 -5.1714,-7.7473 -45.4049,-34.9546 -86.1383,-62.4979 -37.461703,-25.334 -75.306203,-50.918 -97.911903,-71.7308 -9.2058002,-7.7773 -15.5987002,-18.9276 -17.12230017,-31.8393 -3.18750003,-27.0118 16.12620017,-51.494 43.13800017,-54.6815 l 457.389303,-54.1312 c 2.7651,-0.4333 5.6039,-0.6392 8.497,-0.5928 27.2124,0.4405 48.917,22.8606 48.4764,50.073 -0.3455,20.3032 -37.8584,112.9532 -80.9533,210.0498 z"
     style="fill:#f49100;fill-rule:evenodd"
     id="path6" />
</svg>
